HIERARCHY
ROOT root
{
	OFFSET	0	13.1	24.9
	CHANNELS 6  Xposition Yposition Zposition Xrotation Yrotation Zrotation
	JOINT spine_1
	{
		OFFSET	0	9.99999	0
		CHANNELS 3  Xrotation Yrotation Zrotation
		JOINT spine_2
		{
			OFFSET	0	112	-10
			CHANNELS 3  Xrotation Yrotation Zrotation
			JOINT spine_3
			{
				OFFSET	0	206.5	19.3
				CHANNELS 3  Xrotation Yrotation Zrotation
				JOINT spine_4
				{
					OFFSET	0	110.4	14.6
					CHANNELS 3  Xrotation Yrotation Zrotation
					JOINT neck_1
					{
						OFFSET	0	71.8	-50.3
						CHANNELS 3  Xrotation Yrotation Zrotation
						JOINT neck_2
						{
							OFFSET	0	86.2	-25.8
							CHANNELS 3  Xrotation Yrotation Zrotation
							JOINT head_ee
							{
								OFFSET	0	179.8	-8.7
								CHANNELS 3  Xrotation Yrotation Zrotation
								End Site
								{
									OFFSET	1	0	0
								}
							}
						}
					}
					JOINT left_clavicle
					{
						OFFSET	-43.2	22.4	-70.8
						CHANNELS 3  Xrotation Yrotation Zrotation
						JOINT left_shoulder
						{
							OFFSET	-93.9	-5.79999	48.7
							CHANNELS 3  Xrotation Yrotation Zrotation
							JOINT left_elbow
							{
								OFFSET	-291.4	-30.8	15.2
								CHANNELS 3  Xrotation Yrotation Zrotation
								JOINT left_lowarm_twist
								{
									OFFSET	-110.7	-3.89999	13.6
									CHANNELS 3  Xrotation Yrotation Zrotation
									JOINT left_hand
									{
										OFFSET	-110.7	-3.89999	13.6
										CHANNELS 3  Xrotation Yrotation Zrotation
										JOINT left_ee
										{
											OFFSET	-80.8	-5.10001	12.1
											CHANNELS 3  Xrotation Yrotation Zrotation
											End Site
											{
												OFFSET	1	0	0
											}
										}
									}
								}
							}
						}
					}
					JOINT right_clavicle
					{
						OFFSET	43.2	22.4	-70.8
						CHANNELS 3  Xrotation Yrotation Zrotation
						JOINT right_shoulder
						{
							OFFSET	93.9	-5.79999	48.7
							CHANNELS 3  Xrotation Yrotation Zrotation
							JOINT right_elbow
							{
								OFFSET	291.4	-30.8	15.2
								CHANNELS 3  Xrotation Yrotation Zrotation
								JOINT right_lowarm_twist
								{
									OFFSET	110.7	-3.89999	13.6
									CHANNELS 3  Xrotation Yrotation Zrotation
									JOINT right_hand
									{
										OFFSET	110.7	-3.89999	13.6
										CHANNELS 3  Xrotation Yrotation Zrotation
										JOINT right_ee
										{
											OFFSET	80.8	-5.10001	12.1
											CHANNELS 3  Xrotation Yrotation Zrotation
											End Site
											{
												OFFSET	1	0	0
											}
										}
									}
								}
							}
						}
					}
				}
			}
		}
	}
	JOINT left_hip
	{
		OFFSET	-82.8	-127.5	0.300001
		CHANNELS 3  Xrotation Yrotation Zrotation
		JOINT left_knee
		{
			OFFSET	-28.2	-396.7	2.2
			CHANNELS 3  Xrotation Yrotation Zrotation
			JOINT left_ankle
			{
				OFFSET	-11.7	-411.3	35.4
				CHANNELS 3  Xrotation Yrotation Zrotation
				JOINT left_toes
				{
					OFFSET	0	-60	-88.6
					CHANNELS 3  Xrotation Yrotation Zrotation
					JOINT left_foot_ee
					{
						OFFSET	-22.5	-16.5	-42.2
						CHANNELS 3  Xrotation Yrotation Zrotation
						End Site
						{
							OFFSET	1	0	0
						}
					}
				}
			}
		}
	}
	JOINT right_hip
	{
		OFFSET	82.8	-127.5	0.300001
		CHANNELS 3  Xrotation Yrotation Zrotation
		JOINT right_knee
		{
			OFFSET	28.2	-396.7	2.2
			CHANNELS 3  Xrotation Yrotation Zrotation
			JOINT right_ankle
			{
				OFFSET	11.7	-411.3	35.4
				CHANNELS 3  Xrotation Yrotation Zrotation
				JOINT right_toes
				{
					OFFSET	0	-60	-88.6
					CHANNELS 3  Xrotation Yrotation Zrotation
					JOINT right_foot_ee
					{
						OFFSET	22.5	-16.5	-42.2
						CHANNELS 3  Xrotation Yrotation Zrotation
						End Site
						{
							OFFSET	1	0	0
						}
					}
				}
			}
		}
	}
}
MOTION
Frames: 6
Frame Time: 0.02
1160.87470139 722.228 -1796.73245427 -20.880409588 18.4369687975 6.17199206614 8.78903 -0.0290826 0.44869 8.78914 -0.0575747 0.445931 8.78849 -0.0834918 0.441812 8.78822 -0.0126687 0.449453 -16.7152 7.86461 -1.19122 -16.9815 15.765 1.76685 -0.0 0.0 -0.0 1.96482 19.5911 5.19463 -26.158 -10.0409 67.0676 0.200604 -5.67518 0.00994313 61.0932 -1.87222 -7.20785 2.33209 -13.3506 10.0619 -0.0 0.0 -0.0 11.169 11.6776 -22.3976 35.9212 -61.9572 -42.0301 0.183289 5.18814 -0.00830406 80.8641 3.93854 8.65773 -1.25673 -17.1484 0.688498 0.0 0.0 0.0 49.6381 6.53918 -5.80923 -73.768 -3.8549 9.85163 18.1159 9.80309 -2.49688 20.8278 -0.0 -0.0 -0.0 0.0 -0.0 29.5595 3.79379 -4.50019 -8.61691 -0.257721 -1.29608 40.2325 -1.9552 4.88441 -22.4096 0.0 0.0 0.0 0.0 0.0 
1142.69712668 724.547 -1810.28893129 -21.1013690455 19.0385774929 7.15609471416 8.99991 0.0290459 0.329834 8.99997 0.00799898 0.331014 8.9999 -0.010103 0.330956 8.99975 0.0422919 0.328398 -18.6158 6.29071 -0.309162 -18.81 12.2734 2.21111 -0.0 0.0 -0.0 1.54652 20.3825 4.62882 -28.9569 -9.25739 66.8022 0.19812 -5.60536 0.00969899 59.5802 -1.73669 -7.06907 1.32384 -9.75459 4.79779 -0.0 0.0 -0.0 11.6754 15.5056 -23.4387 40.0161 -63.9542 -40.9974 0.188345 5.33042 -0.00876749 82.5282 4.13308 8.74581 -3.05716 -28.7949 5.23765 0.0 0.0 0.0 54.6514 5.03252 -7.99415 -67.9027 -3.11098 9.3352 10.727 6.93393 -1.52106 18.7667 -0.0 -0.0 -0.0 0.0 -0.0 28.1613 -0.313725 -4.40775 -9.22766 -0.268545 -1.38917 39.8291 6.25741 4.93694 -16.8611 0.0 0.0 0.0 0.0 0.0 
1113.64861799 722.621 -1830.61828406 -22.8638458874 23.5679803087 10.7344880822 9.96513 0.0465328 0.274837 9.96517 0.0289499 0.277241 9.96522 0.0184441 0.278138 9.96512 0.0621391 0.271734 -19.1212 4.57137 -0.647873 -19.2323 9.14395 1.24389 -0.0 0.0 -0.0 0.50022 22.2939 3.28772 -32.1889 -11.0097 64.0151 0.205606 -5.81574 0.0104439 58.6966 -1.65927 -6.9864 1.35131 -11.45 4.24952 -0.0 0.0 -0.0 11.1469 10.661 -22.36 40.2301 -63.5762 -42.9448 0.185728 5.25679 -0.00852606 79.6332 3.79632 8.58895 -2.65828 -29.1291 2.91169 0.0 0.0 0.0 55.2173 0.617069 -7.14283 -67.9252 -3.11373 9.33733 9.77008 6.49467 -1.39025 17.8279 -0.0 -0.0 -0.0 0.0 -0.0 25.4105 -2.50416 -5.92539 -7.1705 -0.228133 -1.0761 39.819 8.53148 4.9789 -14.3614 0.0 0.0 0.0 0.0 0.0 
1067.44049222 723.837 -1836.8030407 -23.1002762815 29.2377866739 13.2036265844 10.0753 -0.0879443 -0.0779353 10.0753 -0.0828069 -0.0833734 10.0754 -0.0797606 -0.0862922 10.0754 -0.0923879 -0.0726125 -21.1924 5.28522 -1.95576 -21.3811 11.1472 0.522416 -0.0 0.0 -0.0 0.559704 22.4571 3.38645 -34.0568 -8.81331 64.1116 0.209274 -5.91875 0.0108189 57.8838 -1.58919 -6.90931 0.495295 -8.91842 -0.443191 -0.0 0.0 -0.0 10.7785 10.8787 -21.538 46.0169 -65.6329 -37.8708 0.177278 5.01887 -0.0077694 80.0675 3.84632 8.61357 -2.69707 -29.2116 3.07542 0.0 0.0 0.0 55.1126 -3.59049 -4.83484 -64.0448 -2.65221 8.95546 5.22206 7.3835 -0.753756 16.1128 -0.0 -0.0 -0.0 0.0 -0.0 24.261 1.17791 -5.18169 -11.0053 -0.294394 -1.66069 40.1498 4.65434 4.93933 -7.97374 0.0 0.0 0.0 0.0 0.0 
1056.29435819 721.409 -1839.70570592 -23.5562354297 31.0128459071 14.3264669643 9.78176 0.00624377 0.0673439 9.78177 0.00194585 0.0676047 9.78176 -0.000828918 0.0676276 9.78176 0.00986201 0.0669098 -21.4425 3.39629 -0.00667917 -21.5113 6.55638 1.49953 -0.0 0.0 -0.0 1.02822 21.727 3.98278 -37.1132 -8.23649 63.6101 0.327378 -9.21187 0.0263745 57.3356 -1.54255 -6.85677 -0.104741 -10.1244 -5.01437 -0.0 0.0 -0.0 10.5654 9.18054 -21.0798 53.4776 -66.9606 -34.0056 0.183305 5.18859 -0.00830552 78.6044 3.6786 8.52915 -3.64238 -28.9329 8.32612 0.0 0.0 0.0 57.5826 -6.62958 -5.12333 -58.4824 -2.03836 8.35613 -1.86407 5.75873 0.274264 15.136 -0.0 -0.0 -0.0 0.0 -0.0 23.958 -5.03434 -4.86704 -11.965 -0.304844 -1.80759 39.7448 8.80854 4.97826 -2.14366 0.0 0.0 0.0 0.0 0.0 
1015.94878833 716.339 -1866.88756555 -26.7697301604 37.0384984649 19.967202606 9.69911 0.148195 -0.105954 9.6991 0.154637 -0.0963091 9.69886 0.158588 -0.0896552 9.69888 0.142438 -0.113576 -17.4079 1.03018 -1.07937 -17.4123 2.57671 -0.626678 -0.0 0.0 -0.0 1.80055 19.0994 4.92013 -38.5556 -3.66184 61.6562 0.357568 -10.0448 0.031424 56.2051 -1.44796 -6.74703 -0.665184 -2.88685 -5.69984 -0.0 0.0 -0.0 10.8699 9.57253 -21.7504 66.4352 -64.3448 -25.5806 0.203046 5.74382 -0.0101861 78.8405 3.70552 8.54306 -4.17086 -29.266 10.9973 0.0 0.0 0.0 57.4609 -12.8966 -3.89939 -44.2897 -0.761985 6.5881 -10.5846 7.06457 1.57984 9.19804 -0.0 -0.0 -0.0 0.0 -0.0 20.4914 -19.0603 -5.19724 -12.0616 -0.305758 -1.82237 39.3024 19.8855 5.28548 1.33109 -0.0 -0.0 0.0 0.0 0.0 
